<svg xmlns="http://www.w3.org/2000/svg" xmlns:xlink="http://www.w3.org/1999/xlink" width="500" zoomAndPan="magnify" viewBox="0 0 375 374.999991" height="500" preserveAspectRatio="xMidYMid meet" version="1.0"><defs><g/></defs><g fill="#000000" fill-opacity="1"><g transform="translate(51.420503, 309.091151)"><g><path d="M 1.125 -9.796875 L 2.5625 -9.796875 L 7.390625 -2.46875 L 7.390625 -9.796875 L 8.734375 -9.796875 L 8.734375 0 L 7.609375 0 L 2.453125 -7.734375 L 2.453125 0 L 1.125 0 Z M 1.125 -9.796875 "/></g></g></g><g fill="#000000" fill-opacity="1"><g transform="translate(72.471203, 309.091151)"><g><path d="M 6.1875 -2.640625 L 2.4375 -2.640625 L 1.5 0 L 0.09375 0 L 3.609375 -9.796875 L 5.015625 -9.796875 L 8.53125 0 L 7.125 0 Z M 5.765625 -3.84375 L 4.3125 -7.9375 L 2.859375 -3.84375 Z M 5.765625 -3.84375 "/></g></g></g><g fill="#000000" fill-opacity="1"><g transform="translate(92.290588, 309.091151)"><g><path d="M 3.0625 -8.59375 L 0.203125 -8.59375 L 0.203125 -9.796875 L 7.25 -9.796875 L 7.25 -8.59375 L 4.390625 -8.59375 L 4.390625 0 L 3.0625 0 Z M 3.0625 -8.59375 "/></g></g></g><g fill="#000000" fill-opacity="1"><g transform="translate(110.948625, 309.091151)"><g><path d="M 6.1875 -2.640625 L 2.4375 -2.640625 L 1.5 0 L 0.09375 0 L 3.609375 -9.796875 L 5.015625 -9.796875 L 8.53125 0 L 7.125 0 Z M 5.765625 -3.84375 L 4.3125 -7.9375 L 2.859375 -3.84375 Z M 5.765625 -3.84375 "/></g></g></g><g fill="#000000" fill-opacity="1"><g transform="translate(130.768011, 309.091151)"><g><path d="M 1.125 -9.796875 L 2.453125 -9.796875 L 2.453125 -1.203125 L 6.9375 -1.203125 L 6.9375 0 L 1.125 0 Z M 1.125 -9.796875 "/></g></g></g><g fill="#000000" fill-opacity="1"><g transform="translate(148.978301, 309.091151)"><g><path d="M 1.125 -9.796875 L 2.453125 -9.796875 L 2.453125 0 L 1.125 0 Z M 1.125 -9.796875 "/></g></g></g><g fill="#000000" fill-opacity="1"><g transform="translate(163.746499, 309.091151)"><g><path d="M 6.1875 -2.640625 L 2.4375 -2.640625 L 1.5 0 L 0.09375 0 L 3.609375 -9.796875 L 5.015625 -9.796875 L 8.53125 0 L 7.125 0 Z M 5.765625 -3.84375 L 4.3125 -7.9375 L 2.859375 -3.84375 Z M 5.765625 -3.84375 "/></g></g></g><g fill="#000000" fill-opacity="1"><g transform="translate(183.56588, 309.091151)"><g/></g></g><g fill="#000000" fill-opacity="1"><g transform="translate(197.914321, 309.091151)"><g><path d="M 1.125 -9.796875 L 7.09375 -9.796875 L 7.09375 -8.59375 L 2.453125 -8.59375 L 2.453125 -5.71875 L 6.03125 -5.71875 L 6.03125 -4.515625 L 2.453125 -4.515625 L 2.453125 0 L 1.125 0 Z M 1.125 -9.796875 "/></g></g></g><g fill="#000000" fill-opacity="1"><g transform="translate(216.432428, 309.091151)"><g><path d="M 5.0625 0.203125 C 3.707031 0.203125 2.691406 -0.175781 2.015625 -0.9375 C 1.347656 -1.707031 1.015625 -2.78125 1.015625 -4.15625 L 1.015625 -9.796875 L 2.34375 -9.796875 L 2.34375 -4.515625 C 2.34375 -3.441406 2.53125 -2.585938 2.90625 -1.953125 C 3.289062 -1.328125 4.007812 -1.015625 5.0625 -1.015625 C 6.125 -1.015625 6.84375 -1.332031 7.21875 -1.96875 C 7.601562 -2.601562 7.796875 -3.453125 7.796875 -4.515625 L 7.796875 -9.796875 L 9.125 -9.796875 L 9.125 -4.15625 C 9.125 -2.78125 8.785156 -1.707031 8.109375 -0.9375 C 7.429688 -0.175781 6.414062 0.203125 5.0625 0.203125 Z M 5.0625 0.203125 "/></g></g></g><g fill="#000000" fill-opacity="1"><g transform="translate(237.762966, 309.091151)"><g><path d="M 1.125 -9.796875 L 7.09375 -9.796875 L 7.09375 -8.59375 L 2.453125 -8.59375 L 2.453125 -5.71875 L 6.140625 -5.71875 L 6.140625 -4.515625 L 2.453125 -4.515625 L 2.453125 -1.203125 L 7.21875 -1.203125 L 7.21875 0 L 1.125 0 Z M 1.125 -9.796875 "/></g></g></g><g fill="#000000" fill-opacity="1"><g transform="translate(256.714839, 309.091151)"><g><path d="M 1.125 -9.796875 L 2.5625 -9.796875 L 7.390625 -2.46875 L 7.390625 -9.796875 L 8.734375 -9.796875 L 8.734375 0 L 7.609375 0 L 2.453125 -7.734375 L 2.453125 0 L 1.125 0 Z M 1.125 -9.796875 "/></g></g></g><g fill="#000000" fill-opacity="1"><g transform="translate(277.765534, 309.091151)"><g><path d="M 3.0625 -8.59375 L 0.203125 -8.59375 L 0.203125 -9.796875 L 7.25 -9.796875 L 7.25 -8.59375 L 4.390625 -8.59375 L 4.390625 0 L 3.0625 0 Z M 3.0625 -8.59375 "/></g></g></g><g fill="#000000" fill-opacity="1"><g transform="translate(296.423568, 309.091151)"><g><path d="M 1.125 -9.796875 L 7.09375 -9.796875 L 7.09375 -8.59375 L 2.453125 -8.59375 L 2.453125 -5.71875 L 6.140625 -5.71875 L 6.140625 -4.515625 L 2.453125 -4.515625 L 2.453125 -1.203125 L 7.21875 -1.203125 L 7.21875 0 L 1.125 0 Z M 1.125 -9.796875 "/></g></g></g><g fill="#000000" fill-opacity="1"><g transform="translate(315.375441, 309.091151)"><g><path d="M 3.921875 0.203125 C 3.335938 0.203125 2.75 0.132812 2.15625 0 C 1.5625 -0.125 1.082031 -0.269531 0.71875 -0.4375 L 0.890625 -1.84375 C 1.359375 -1.625 1.882812 -1.429688 2.46875 -1.265625 C 3.0625 -1.097656 3.648438 -1.015625 4.234375 -1.015625 C 4.878906 -1.015625 5.378906 -1.128906 5.734375 -1.359375 C 6.097656 -1.597656 6.28125 -1.957031 6.28125 -2.4375 C 6.28125 -2.789062 6.1875 -3.085938 6 -3.328125 C 5.820312 -3.566406 5.554688 -3.765625 5.203125 -3.921875 C 4.859375 -4.085938 4.375 -4.265625 3.75 -4.453125 C 3.113281 -4.640625 2.585938 -4.835938 2.171875 -5.046875 C 1.753906 -5.265625 1.414062 -5.5625 1.15625 -5.9375 C 0.894531 -6.3125 0.765625 -6.78125 0.765625 -7.34375 C 0.765625 -8.144531 1.070312 -8.785156 1.6875 -9.265625 C 2.300781 -9.753906 3.160156 -10 4.265625 -10 C 4.867188 -10 5.4375 -9.929688 5.96875 -9.796875 C 6.507812 -9.671875 6.976562 -9.515625 7.375 -9.328125 L 7.234375 -7.90625 C 6.710938 -8.21875 6.207031 -8.441406 5.71875 -8.578125 C 5.238281 -8.722656 4.738281 -8.796875 4.21875 -8.796875 C 3.601562 -8.796875 3.113281 -8.679688 2.75 -8.453125 C 2.394531 -8.234375 2.21875 -7.890625 2.21875 -7.421875 C 2.21875 -7.097656 2.300781 -6.832031 2.46875 -6.625 C 2.632812 -6.425781 2.867188 -6.253906 3.171875 -6.109375 C 3.484375 -5.960938 3.914062 -5.804688 4.46875 -5.640625 C 5.570312 -5.304688 6.390625 -4.90625 6.921875 -4.4375 C 7.460938 -3.976562 7.734375 -3.34375 7.734375 -2.53125 C 7.734375 -1.675781 7.410156 -1.003906 6.765625 -0.515625 C 6.128906 -0.0351562 5.179688 0.203125 3.921875 0.203125 Z M 3.921875 0.203125 "/></g></g></g><g fill="#000000" fill-opacity="1"><g transform="translate(115.195396, 213.387521)"><g><path d="M 5.804688 -112.847656 C 5.640625 -112.847656 5.480469 -112.527344 5.480469 -112.363281 L 5.480469 0 C 5.480469 0.324219 5.640625 0.484375 5.804688 0.484375 C 6.125 0.484375 6.289062 0.324219 6.289062 0 L 6.289062 -110.589844 L 60.9375 0.324219 C 61.097656 0.484375 61.097656 0.484375 61.261719 0.484375 L 75.929688 0.484375 C 76.09375 0.484375 76.414062 0.324219 76.414062 0 L 76.414062 -112.363281 C 76.414062 -112.527344 76.09375 -112.847656 75.929688 -112.847656 C 75.609375 -112.847656 75.449219 -112.527344 75.449219 -112.363281 L 75.449219 -1.773438 L 25.792969 -102.371094 C 23.535156 -106.722656 19.023438 -110.269531 14.347656 -111.882812 L 23.699219 -111.882812 C 23.859375 -111.882812 24.019531 -112.042969 24.019531 -112.363281 C 24.019531 -112.527344 23.859375 -112.847656 23.699219 -112.847656 Z M 5.804688 -112.847656 "/></g></g></g><path stroke-linecap="butt" transform="matrix(0.75, 0, 0, 0.75, 131.297134, 76.112501)" fill="none" stroke-linejoin="miter" d="M 69.728826 74.547921 C 69.520492 74.547921 69.312159 74.964587 69.312159 75.172921 L 69.312159 225.001056 C 69.312159 225.417722 69.520492 225.631264 69.728826 225.631264 L 87.150702 225.631264 C 87.572577 225.631264 87.832993 225.417722 87.832993 225.001056 L 87.832993 150.850009 L 116.385079 150.850009 C 116.801745 150.850009 117.06737 150.428134 117.06737 150.219801 C 117.06737 149.745842 116.801745 149.537509 116.385079 149.537509 L 87.832993 149.537509 L 87.832993 89.605213 C 87.832993 83.360421 83.952785 77.954171 78.546534 75.803129 L 163.244457 75.803129 C 163.457998 75.803129 163.666332 75.594796 163.666332 75.172921 C 163.666332 74.964587 163.457998 74.547921 163.244457 74.547921 Z M 69.728826 74.547921 " stroke="#ffffff" stroke-width="8.329351" stroke-opacity="1" stroke-miterlimit="4"/><g fill="#000000" fill-opacity="1"><g transform="translate(177.80885, 244.86249)"><g><path d="M 5.804688 -112.847656 C 5.640625 -112.847656 5.480469 -112.527344 5.480469 -112.363281 L 5.480469 0 C 5.480469 0.324219 5.640625 0.484375 5.804688 0.484375 L 18.863281 0.484375 C 19.183594 0.484375 19.34375 0.324219 19.34375 0 L 19.34375 -55.617188 L 40.785156 -55.617188 C 41.109375 -55.617188 41.269531 -55.941406 41.269531 -56.101562 C 41.269531 -56.425781 41.109375 -56.585938 40.785156 -56.585938 L 19.34375 -56.585938 L 19.34375 -101.5625 C 19.34375 -106.238281 16.445312 -110.269531 12.414062 -111.882812 L 75.929688 -111.882812 C 76.09375 -111.882812 76.253906 -112.042969 76.253906 -112.363281 C 76.253906 -112.527344 76.09375 -112.847656 75.929688 -112.847656 Z M 5.804688 -112.847656 "/></g></g></g></svg>